<svg id="Layer_1" data-name="Layer 1" xmlns="http://www.w3.org/2000/svg" viewBox="0 0 32 32"><defs><style>.cls-1{fill:#1d1d1b;}</style></defs><path class="cls-1" d="M16,0A16,16,0,1,0,32,16,16,16,0,0,0,16,0Zm9.13,19.34c-.9,2.15-3.4,4.25-6.81,5.3l-5.75,2.07-2.46-6.53a18.85,18.85,0,0,0,2.71-.13A20.5,20.5,0,0,0,15,19.63l.65,1.72,2.23-.82c.16-.07,2.72-1.18,2.57-2.19a.61.61,0,0,0-.13-.32c-.26-.36-.81-.48-2.46-.32-.84.09-1.47.2-1.64.22-1.63.27-2.89.44-3.12.46a19.46,19.46,0,0,1-3.66.1l-3-7.94,7.27-2.6a10.23,10.23,0,0,1,3.64-.56A8.49,8.49,0,0,1,22,8.71,8,8,0,0,1,24.78,12,14.17,14.17,0,0,0,19,12a5.45,5.45,0,0,0-4.22-.2l-2.36.83.43,1.13a1.06,1.06,0,0,0,.37.36,1.38,1.38,0,0,0,.66.17c.32,0,.65,0,1,0,1.44-.08,1.77-.13,1.77-.13,1.64-.23,3.5-.55,4.23-.66a14.2,14.2,0,0,1,4.6.15,7.83,7.83,0,0,1,.39,2.59A9.89,9.89,0,0,1,25.13,19.34Z"/></svg>